<svg width="201" height="201" viewBox="0 0 201 201" fill="none" xmlns="http://www.w3.org/2000/svg">
<path d="M40.016 110.224L33.872 127.76L44.88 138H18.64L30.032 127.12L51.92 65.424L45.648 50.32H63.696L91.216 126.608L99.92 138H62.8L73.808 127.248L67.792 110.224H40.016ZM53.968 70.8L41.296 106.64H66.512L53.968 70.8ZM170.388 71.44C170.388 81.04 163.732 88.592 152.34 92.688L170.004 127.12L180.884 138H156.564L136.852 95.76C135.188 95.888 133.524 95.888 131.732 95.888V127.12L141.204 138H105.62L115.092 127.12V63.248L105.62 50.32H135.444C157.332 50.32 170.388 58.256 170.388 71.44ZM133.268 92.688C142.868 92.688 151.572 85.392 151.572 72.976C151.572 58.896 142.868 53.52 133.268 53.52H131.732V92.688H133.268Z" fill="white"/>
<circle cx="100.5" cy="100.5" r="98.5" stroke="white" stroke-width="4"/>
</svg>
